<svg width="24" height="24" viewBox="0 0 24 24" fill="none" xmlns="http://www.w3.org/2000/svg">
<path d="M8.03809 4.08887C10.6061 3.43653 13.3887 3.43653 15.9707 4.08887C17.0667 4.36397 17.833 5.3585 17.833 6.50684V7.41016C20.1392 8.09837 21.8196 10.1471 21.9697 12.6094V12.6084C21.9893 12.9278 22 13.2577 22 13.5967C22 14.5396 21.917 15.4897 21.7529 16.4209C21.442 18.1824 20.0371 19.5432 18.2568 19.8057C16.1913 20.1096 14.0859 20.2637 12 20.2637C9.9251 20.2637 7.83052 20.1103 5.77441 19.8096C3.97919 19.5464 2.56387 18.1969 2.25293 16.4531C2.08499 15.5126 2 14.5513 2 13.5967C2.00001 13.2937 2.00881 12.9556 2.03223 12.584C2.18623 10.1254 3.86762 8.0832 6.16602 7.4082V6.50684C6.16602 5.35999 6.9358 4.36468 8.03809 4.08887ZM11.999 8.59766C10.4468 8.59767 8.87897 8.68634 7.34082 8.86133C5.35271 9.08792 3.81865 10.6972 3.69434 12.6885C3.67404 13.0219 3.667 13.3259 3.66699 13.5977C3.66699 14.4545 3.7428 15.3174 3.89355 16.1611C4.07862 17.1986 4.93133 18.0025 6.01562 18.1611C9.97962 18.7432 14.0552 18.7408 18.0146 18.1572C19.0831 17.9992 19.9254 17.1845 20.1113 16.1309H20.1104C20.258 15.2958 20.332 14.4428 20.332 13.5977C20.332 13.2931 20.3228 12.9976 20.3057 12.7109C20.1831 10.7054 18.631 9.08398 16.6162 8.85742C15.0897 8.68479 13.5364 8.59766 11.999 8.59766ZM7 10.2646C7.46011 10.2646 7.83391 10.6368 7.83398 11.0977V16.0977C7.83398 16.5586 7.46016 16.9316 7 16.9316C6.53984 16.9316 6.16602 16.5586 6.16602 16.0977V11.0977C6.16609 10.6368 6.53989 10.2647 7 10.2646ZM17 10.2646C17.4601 10.2646 17.8339 10.6368 17.834 11.0977V16.0977C17.834 16.5586 17.4602 16.9316 17 16.9316C16.5398 16.9316 16.166 16.5586 16.166 16.0977V11.0977C16.1661 10.6368 16.5399 10.2647 17 10.2646ZM14.501 9.43066C14.9611 9.43076 15.334 9.80377 15.334 10.2646C15.3337 10.7253 14.9609 11.0976 14.501 11.0977H9.5C9.03999 11.0977 8.66625 10.7254 8.66602 10.2646C8.66602 9.80371 9.03984 9.43067 9.5 9.43066H14.501ZM15.5645 5.70508C13.2465 5.11916 10.7518 5.1192 8.44727 5.70508L8.44629 5.7041C8.08461 5.79471 7.83306 6.12447 7.83301 6.50488V7.14746C10.5924 6.87872 13.403 6.87853 16.167 7.14648V6.50586C16.167 6.13017 15.9135 5.79346 15.5645 5.70508Z" fill="#253343"/>
</svg>
