<svg width="24" height="24" viewBox="0 0 24 24" fill="none" xmlns="http://www.w3.org/2000/svg">
<path d="M11.9434 2.3457C13.9774 2.3457 15.9097 2.98262 17.5283 4.14648L17.5342 4.15137C17.5373 4.15345 17.5402 4.1548 17.542 4.15625L17.543 4.15723C17.9588 4.45788 18.3603 4.78507 18.7324 5.15723C20.5461 6.96997 21.5439 9.38208 21.5439 11.9453C21.5439 14.5086 20.5451 16.9207 18.7324 18.7334C16.9197 20.5471 14.5085 21.5449 11.9443 21.5449C9.38019 21.5449 6.96897 20.547 5.15625 18.7334C3.34255 16.9207 2.34473 14.5095 2.34473 11.9453C2.34473 9.56525 3.21414 7.32429 4.78711 5.56445L4.84961 5.49512L5.15527 5.15723C6.96801 3.34352 9.37922 2.34571 11.9434 2.3457ZM17.2236 5.35645C16.563 6.19046 16.2022 7.21397 16.2021 8.29199V11.9307C16.2028 11.9351 16.2041 11.9401 16.2041 11.9453C16.2039 15.1284 13.6147 17.7187 10.4307 17.7188C8.89133 17.7188 7.44091 17.1166 6.34961 16.0254C5.25929 14.9332 4.65727 13.4838 4.65723 11.9443V7.66797C3.90043 8.95084 3.49219 10.4149 3.49219 11.9443C3.49223 14.2019 4.37134 16.3235 5.96777 17.9199C7.56421 19.5163 9.68689 20.3954 11.9434 20.3955C14.201 20.3955 16.3234 19.5162 17.9189 17.9199C19.5148 16.3236 20.3935 14.2025 20.3936 11.9453C20.3936 9.68769 19.5143 7.56616 17.918 5.96973C17.6979 5.74965 17.4645 5.5489 17.2236 5.35645ZM11.9434 3.49316C9.68576 3.49322 7.56417 4.37235 5.96777 5.96875C5.93655 5.99998 5.9069 6.03314 5.87598 6.06836C5.85383 6.09358 5.82968 6.11987 5.80566 6.14648V11.9453C5.80661 13.1779 6.28811 14.3387 7.16211 15.2129C8.03738 16.0872 9.19797 16.5693 10.4316 16.5693C12.9797 16.5692 15.0531 14.4965 15.0557 11.9492V8.29102C15.0558 6.97613 15.4861 5.72426 16.2783 4.69922C14.9803 3.91949 13.4962 3.49316 11.9434 3.49316Z" fill="#253343" stroke="#253343" stroke-width="0.2"/>
</svg>
