<svg preserveAspectRatio="none" width="100%" height="100%" overflow="visible" style="display: block;" viewBox="0 0 16.6667 16.6667" fill="none" xmlns="http://www.w3.org/2000/svg">
<path id="Vector" d="M8.33301 0.599609C9.34856 0.599609 10.3547 0.79984 11.293 1.18848C12.2312 1.57711 13.0837 2.14716 13.8018 2.86523C14.5198 3.58329 15.0889 4.43587 15.4775 5.37402C15.8661 6.31217 16.0664 7.31756 16.0664 8.33301C16.0664 9.8625 15.6134 11.3582 14.7637 12.6299C13.914 13.9015 12.7059 14.8922 11.293 15.4775C9.87989 16.0629 8.32434 16.2164 6.82422 15.918C5.32434 15.6195 3.94663 14.8831 2.86523 13.8018C1.78371 12.7202 1.04742 11.3419 0.749023 9.8418C0.450681 8.34178 0.603233 6.78702 1.18848 5.37402C1.77379 3.96094 2.76537 2.75307 4.03711 1.90332C5.30873 1.05368 6.80366 0.599674 8.33301 0.599609ZM11.1143 1.62012C9.78656 1.07017 8.3255 0.925767 6.91602 1.20605C5.50642 1.48644 4.21157 2.17905 3.19531 3.19531C2.17905 4.21157 1.48644 5.50642 1.20605 6.91602C0.925768 8.3255 1.07017 9.78656 1.62012 11.1143C2.17007 12.4419 3.10113 13.5766 4.2959 14.375C5.4908 15.1734 6.89591 15.5995 8.33301 15.5996C10.2602 15.5996 12.1089 14.8344 13.4717 13.4717C14.8344 12.1089 15.5996 10.2602 15.5996 8.33301C15.5995 6.89591 15.1734 5.49081 14.375 4.2959C13.5766 3.10113 12.4419 2.17007 11.1143 1.62012ZM6.90039 10.833C6.90039 11.213 7.05074 11.5779 7.31934 11.8467C7.58806 12.1154 7.95298 12.2665 8.33301 12.2666C8.71315 12.2666 9.07788 12.1155 9.34668 11.8467C9.61548 11.5779 9.7666 11.2132 9.7666 10.833V10.2334H6.90039V10.833ZM5.41699 5.83691C5.91674 5.837 6.39738 6.0275 6.76172 6.36914C6.80259 6.4124 6.8252 6.46963 6.8252 6.5293C6.82516 6.59082 6.80114 6.64969 6.75781 6.69336C6.71434 6.73535 6.65623 6.75879 6.5957 6.75879C6.54945 6.75876 6.50476 6.74497 6.4668 6.71973L6.43164 6.69141C6.29897 6.55836 6.14123 6.45313 5.96777 6.38086C5.79321 6.30813 5.6061 6.27055 5.41699 6.27051C5.22777 6.27051 5.0399 6.30809 4.86523 6.38086C4.69075 6.4536 4.53255 6.56013 4.39941 6.69434L4.38379 6.70996L4.36914 6.72656C4.34835 6.7508 4.32266 6.77022 4.29395 6.78418C4.26503 6.79817 4.23326 6.80636 4.20117 6.80762C4.1692 6.80885 4.13723 6.8036 4.10742 6.79199C4.07748 6.78026 4.05008 6.762 4.02734 6.73926C4.0047 6.7166 3.98634 6.68996 3.97461 6.66016C3.96288 6.63021 3.95774 6.59756 3.95898 6.56543C3.96025 6.53336 3.96844 6.50155 3.98242 6.47266C3.99638 6.44396 4.01582 6.41825 4.04004 6.39746L4.05176 6.3877L4.06348 6.37695C4.42886 6.03037 4.91337 5.83691 5.41699 5.83691ZM10.833 6.43359C10.8949 6.43359 10.9543 6.4582 10.998 6.50195C11.0418 6.54571 11.0664 6.60511 11.0664 6.66699C11.0663 6.71292 11.0528 6.75768 11.0273 6.7959C11.0018 6.83417 10.9653 6.86416 10.9229 6.88184C10.8803 6.89946 10.8333 6.90444 10.7881 6.89551C10.7428 6.8865 10.7006 6.86466 10.668 6.83203C10.6353 6.7994 10.6135 6.75717 10.6045 6.71191C10.5956 6.66673 10.6005 6.6197 10.6182 6.57715C10.6358 6.53466 10.6658 6.49823 10.7041 6.47266C10.7423 6.4472 10.7871 6.43366 10.833 6.43359ZM6.43359 10.2334H5.83301C5.77124 10.2333 5.71165 10.2087 5.66797 10.165C5.62431 10.1213 5.59961 10.0618 5.59961 10C5.59961 9.93819 5.62431 9.8787 5.66797 9.83496C5.71165 9.79128 5.77124 9.76669 5.83301 9.7666H10.833C10.8948 9.7666 10.9543 9.79131 10.998 9.83496C11.0418 9.87872 11.0664 9.93812 11.0664 10C11.0664 10.0619 11.0418 10.1213 10.998 10.165C10.9543 10.2087 10.8948 10.2334 10.833 10.2334H10.2334V10.833C10.2334 11.3369 10.0331 11.8204 9.67676 12.1768C9.32044 12.5331 8.83692 12.7334 8.33301 12.7334C7.82929 12.7333 7.34646 12.5329 6.99023 12.1768C6.63392 11.8204 6.43359 11.3369 6.43359 10.833V10.2334Z" fill="var(--fill-0, black)" stroke="var(--stroke-0, #6783A0)" stroke-width="1.2"/>
</svg>
