<svg preserveAspectRatio="none" width="100%" height="100%" overflow="visible" style="display: block;" viewBox="0 0 20 20" fill="none" xmlns="http://www.w3.org/2000/svg">
<g id="cup">
<path id="Vector" d="M10.125 13.75V15.5" stroke="var(--stroke-0, #6783A0)" stroke-width="1.2" stroke-linecap="round" stroke-linejoin="round"/>
<path id="Vector_2" d="M5.95833 18.3333H14.2917V17.5C14.2917 16.5833 13.5417 15.8333 12.625 15.8333H7.625C6.70833 15.8333 5.95833 16.5833 5.95833 17.5V18.3333V18.3333Z" stroke="var(--stroke-0, #6783A0)" stroke-width="1.2" stroke-miterlimit="10"/>
<path id="Vector_3" d="M5.125 18.3333H15.125" stroke="var(--stroke-0, #6783A0)" stroke-width="1.2" stroke-linecap="round" stroke-linejoin="round"/>
<path id="Vector_4" d="M10 13.3333C6.775 13.3333 4.16667 10.725 4.16667 7.5V5C4.16667 3.15833 5.65833 1.66667 7.5 1.66667H12.5C14.3417 1.66667 15.8333 3.15833 15.8333 5V7.5C15.8333 10.725 13.225 13.3333 10 13.3333Z" stroke="var(--stroke-0, #6783A0)" stroke-width="1.2" stroke-linecap="round" stroke-linejoin="round"/>
<path id="Vector_5" d="M4.55833 9.70833C3.93333 9.50833 3.38333 9.14167 2.95 8.70833C2.2 7.875 1.7 6.875 1.7 5.70833C1.7 4.54167 2.61667 3.625 3.78333 3.625H4.325C4.15833 4.00833 4.075 4.43333 4.075 4.875V7.375C4.075 8.20833 4.25 8.99167 4.55833 9.70833Z" stroke="var(--stroke-0, #6783A0)" stroke-width="1.5" stroke-linecap="round" stroke-linejoin="round"/>
<path id="Vector_6" d="M15.4417 9.70833C16.0667 9.50833 16.6167 9.14167 17.05 8.70833C17.8 7.875 18.3 6.875 18.3 5.70833C18.3 4.54167 17.3833 3.625 16.2167 3.625H15.675C15.8417 4.00833 15.925 4.43333 15.925 4.875V7.375C15.925 8.20833 15.75 8.99167 15.4417 9.70833Z" stroke="var(--stroke-0, #6783A0)" stroke-width="1.5" stroke-linecap="round" stroke-linejoin="round"/>
<path id="Vector_7" opacity="0" d="M19.5 0.5V19.5H0.5V0.5H19.5Z" stroke="var(--stroke-0, #6783A0)"/>
</g>
</svg>
