<svg preserveAspectRatio="none" width="100%" height="100%" overflow="visible" style="display: block;" viewBox="0 0 14.2097 15.6165" fill="none" xmlns="http://www.w3.org/2000/svg">
<g id="Vector">
<mask id="path-1-inside-1_0_317" fill="white">
<path d="M11.3887 15.6165H0.333333C0.149083 15.6165 0 15.4674 0 15.2832V0.333333C0 0.149083 0.149088 0 0.333333 0H11.8158C12.0001 0 12.1492 0.149088 12.1492 0.333333V10.08C12.6225 10.2122 13.0456 10.4648 13.3835 10.802C13.8939 11.3124 14.2097 12.0175 14.2097 12.7962C14.2097 13.5748 13.8939 14.2799 13.3835 14.7903C12.8731 15.3008 12.168 15.6165 11.3894 15.6165H11.3887ZM12.7526 11.1295V12.4264C12.7526 12.802 12.599 13.1432 12.3522 13.3899C12.1055 13.6366 11.7643 13.7903 11.3887 13.7903C11.013 13.7903 10.6719 13.6366 10.4251 13.3899C10.1784 13.1432 10.0248 12.802 10.0248 12.4264V11.1295C9.96747 11.1777 9.91995 11.2193 9.86591 11.2734C9.45836 11.6809 9.23504 12.2265 9.23504 12.7962C9.23504 13.3906 9.47593 13.9296 9.86591 14.3189C10.2552 14.7083 10.7943 14.9498 11.3887 14.9498C11.9831 14.9498 12.5222 14.7089 12.9115 14.3189C13.3008 13.9296 13.5423 13.3906 13.5423 12.7962C13.5423 12.2018 13.3015 11.6627 12.9115 11.2734C12.8607 11.2226 12.8079 11.1751 12.7526 11.1295ZM10.6908 10.7584V12.4271C10.6908 12.6185 10.7695 12.7929 10.8958 12.9192C11.0222 13.0456 11.1973 13.1243 11.3887 13.1243C11.5801 13.1243 11.7546 13.0456 11.8809 12.9192C12.0072 12.7929 12.0859 12.6185 12.0859 12.4271V10.7584C11.8672 10.6835 11.6328 10.6432 11.3887 10.6432C11.1445 10.6432 10.9102 10.6835 10.6908 10.7584ZM11.4818 9.9778V8.1418H10.0781V10.2986C10.4694 10.0929 10.9154 9.97637 11.388 9.97637L11.4818 9.9778ZM9.41212 10.7844V8.14127H2.73628V11.9849H8.68678C8.8222 11.5325 9.06895 11.1275 9.39447 10.802L9.41212 10.7844ZM8.57227 12.6516H2.7441V14.9498H9.5676C9.5077 14.899 9.44976 14.8456 9.39442 14.7903C8.884 14.2798 8.56825 13.5748 8.56825 12.7961C8.56825 12.7479 8.56966 12.6998 8.57227 12.6516ZM9.41212 3.63143H2.73628V7.4751H9.41212V3.63143ZM2.73628 2.96477H9.41212V0.6666H2.73628V2.96477ZM11.4824 7.4746V0.665933H10.0788V7.4746H11.4824ZM0.666617 7.4746H2.07027V0.665933H0.666617V7.4746ZM2.07027 8.14127H0.666617V14.9499H2.07027V8.14127Z"/>
</mask>
<path d="M11.3887 15.6165H0.333333C0.149083 15.6165 0 15.4674 0 15.2832V0.333333C0 0.149083 0.149088 0 0.333333 0H11.8158C12.0001 0 12.1492 0.149088 12.1492 0.333333V10.08C12.6225 10.2122 13.0456 10.4648 13.3835 10.802C13.8939 11.3124 14.2097 12.0175 14.2097 12.7962C14.2097 13.5748 13.8939 14.2799 13.3835 14.7903C12.8731 15.3008 12.168 15.6165 11.3894 15.6165H11.3887ZM12.7526 11.1295V12.4264C12.7526 12.802 12.599 13.1432 12.3522 13.3899C12.1055 13.6366 11.7643 13.7903 11.3887 13.7903C11.013 13.7903 10.6719 13.6366 10.4251 13.3899C10.1784 13.1432 10.0248 12.802 10.0248 12.4264V11.1295C9.96747 11.1777 9.91995 11.2193 9.86591 11.2734C9.45836 11.6809 9.23504 12.2265 9.23504 12.7962C9.23504 13.3906 9.47593 13.9296 9.86591 14.3189C10.2552 14.7083 10.7943 14.9498 11.3887 14.9498C11.9831 14.9498 12.5222 14.7089 12.9115 14.3189C13.3008 13.9296 13.5423 13.3906 13.5423 12.7962C13.5423 12.2018 13.3015 11.6627 12.9115 11.2734C12.8607 11.2226 12.8079 11.1751 12.7526 11.1295ZM10.6908 10.7584V12.4271C10.6908 12.6185 10.7695 12.7929 10.8958 12.9192C11.0222 13.0456 11.1973 13.1243 11.3887 13.1243C11.5801 13.1243 11.7546 13.0456 11.8809 12.9192C12.0072 12.7929 12.0859 12.6185 12.0859 12.4271V10.7584C11.8672 10.6835 11.6328 10.6432 11.3887 10.6432C11.1445 10.6432 10.9102 10.6835 10.6908 10.7584ZM11.4818 9.9778V8.1418H10.0781V10.2986C10.4694 10.0929 10.9154 9.97637 11.388 9.97637L11.4818 9.9778ZM9.41212 10.7844V8.14127H2.73628V11.9849H8.68678C8.8222 11.5325 9.06895 11.1275 9.39447 10.802L9.41212 10.7844ZM8.57227 12.6516H2.7441V14.9498H9.5676C9.5077 14.899 9.44976 14.8456 9.39442 14.7903C8.884 14.2798 8.56825 13.5748 8.56825 12.7961C8.56825 12.7479 8.56966 12.6998 8.57227 12.6516ZM9.41212 3.63143H2.73628V7.4751H9.41212V3.63143ZM2.73628 2.96477H9.41212V0.6666H2.73628V2.96477ZM11.4824 7.4746V0.665933H10.0788V7.4746H11.4824ZM0.666617 7.4746H2.07027V0.665933H0.666617V7.4746ZM2.07027 8.14127H0.666617V14.9499H2.07027V8.14127Z" fill="var(--fill-0, #6783A0)"/>
<path d="M12.1492 10.08H11.1492V10.839L11.8802 11.0432L12.1492 10.08ZM13.3835 10.802L14.0906 10.0949L14.09 10.0942L13.3835 10.802ZM12.7526 11.1295L13.3883 10.3576L11.7526 9.0105V11.1295H12.7526ZM10.0248 11.1295H11.0248V8.98203L9.38117 10.3641L10.0248 11.1295ZM9.86591 11.2734L10.573 11.9805L9.86591 11.2734ZM9.86591 14.3189L10.573 13.6118L10.5724 13.6112L9.86591 14.3189ZM12.9115 14.3189L12.2044 13.6118L12.2038 13.6124L12.9115 14.3189ZM12.9115 11.2734L12.2044 11.9805L12.205 11.9811L12.9115 11.2734ZM10.6908 10.7584L10.3678 9.81199L9.69077 10.043V10.7584H10.6908ZM10.8958 12.9192L11.603 12.2121L11.6029 12.2121L10.8958 12.9192ZM11.8809 12.9192L11.1738 12.2121L11.1737 12.2122L11.8809 12.9192ZM12.0859 10.7584H13.0859V10.0437L12.4098 9.81228L12.0859 10.7584ZM11.4818 9.9778L11.4665 10.9777L12.4818 10.9932V9.9778H11.4818ZM11.4818 8.1418H12.4818V7.1418H11.4818V8.1418ZM10.0781 8.1418V7.1418H9.07813V8.1418H10.0781ZM10.0781 10.2986H9.07813V11.9542L10.5435 11.1837L10.0781 10.2986ZM11.388 9.97637L11.4033 8.97648L11.3957 8.97637H11.388V9.97637ZM9.41212 10.7844L10.1172 11.4935L10.4121 11.2003V10.7844H9.41212ZM9.41212 8.14127H10.4121V7.14127H9.41212V8.14127ZM2.73628 8.14127V7.14127H1.73628V8.14127H2.73628ZM2.73628 11.9849H1.73628V12.9849H2.73628V11.9849ZM8.68678 11.9849V12.9849H9.43132L9.6448 12.2717L8.68678 11.9849ZM9.39447 10.802L8.68936 10.0929L8.68734 10.0949L9.39447 10.802ZM8.57227 12.6516L9.57081 12.7056L9.62778 11.6516H8.57227V12.6516ZM2.7441 12.6516V11.6516H1.7441V12.6516H2.7441ZM2.7441 14.9498H1.7441V15.9498H2.7441V14.9498ZM9.5676 14.9498V15.9498H12.2934L10.2143 14.187L9.5676 14.9498ZM9.39442 14.7903L8.68731 15.4974L8.68735 15.4974L9.39442 14.7903ZM9.41212 3.63143H10.4121V2.63143H9.41212V3.63143ZM2.73628 3.63143V2.63143H1.73628V3.63143H2.73628ZM2.73628 7.4751H1.73628V8.4751H2.73628V7.4751ZM9.41212 7.4751V8.4751H10.4121V7.4751H9.41212ZM2.73628 2.96477H1.73628V3.96477H2.73628V2.96477ZM9.41212 2.96477V3.96477H10.4121V2.96477H9.41212ZM9.41212 0.6666H10.4121V-0.3334H9.41212V0.6666ZM2.73628 0.6666V-0.3334H1.73628V0.6666H2.73628ZM11.4824 7.4746V8.4746H12.4824V7.4746H11.4824ZM11.4824 0.665933H12.4824V-0.334067H11.4824V0.665933ZM10.0788 0.665933V-0.334067H9.0788V0.665933H10.0788ZM10.0788 7.4746H9.0788V8.4746H10.0788V7.4746ZM0.666617 7.4746H-0.333383V8.4746H0.666617V7.4746ZM2.07027 7.4746V8.4746H3.07027V7.4746H2.07027ZM2.07027 0.665933H3.07027V-0.334067H2.07027V0.665933ZM0.666617 0.665933V-0.334067H-0.333383V0.665933H0.666617ZM2.07027 8.14127H3.07027V7.14127H2.07027V8.14127ZM0.666617 8.14127V7.14127H-0.333383V8.14127H0.666617ZM0.666617 14.9499H-0.333383V15.9499H0.666617V14.9499ZM2.07027 14.9499V15.9499H3.07027V14.9499H2.07027ZM11.3887 15.6165V14.6165H0.333333V15.6165V16.6165H11.3887V15.6165ZM0.333333 15.6165V14.6165C0.701378 14.6165 1 14.9151 1 15.2832H0H-1C-1 16.0197 -0.403211 16.6165 0.333333 16.6165V15.6165ZM0 15.2832H1V0.333333H0H-1V15.2832H0ZM0 0.333333H1C1 0.701378 0.701364 1 0.333333 1V0V-1C-0.403187 -1 -1 -0.403211 -1 0.333333H0ZM0.333333 0V1H11.8158V0V-1H0.333333V0ZM11.8158 0V1C11.4478 1 11.1492 0.701363 11.1492 0.333333H12.1492H13.1492C13.1492 -0.403186 12.5524 -1 11.8158 -1V0ZM12.1492 0.333333H11.1492V10.08H12.1492H13.1492V0.333333H12.1492ZM12.1492 10.08L11.8802 11.0432C12.184 11.128 12.4576 11.2907 12.6771 11.5098L13.3835 10.802L14.09 10.0942C13.6337 9.63882 13.0609 9.29634 12.4181 9.11685L12.1492 10.08ZM13.3835 10.802L12.6764 11.5091C13.007 11.8397 13.2097 12.2935 13.2097 12.7962H14.2097H15.2097C15.2097 11.7415 14.7809 10.7851 14.0906 10.0949L13.3835 10.802ZM14.2097 12.7962H13.2097C13.2097 13.2988 13.0071 13.7526 12.6764 14.0833L13.3835 14.7903L14.0907 15.4974C14.7808 14.8072 15.2097 13.8508 15.2097 12.7962H14.2097ZM13.3835 14.7903L12.6764 14.0833C12.3458 14.4139 11.8921 14.6165 11.3894 14.6165V15.6165V16.6165C12.444 16.6165 13.4004 16.1877 14.0907 15.4974L13.3835 14.7903ZM11.3894 15.6165V14.6165H11.3887V15.6165V16.6165H11.3894V15.6165ZM12.7526 11.1295H11.7526V12.4264H12.7526H13.7526V11.1295H12.7526ZM12.7526 12.4264H11.7526C11.7526 12.5241 11.7135 12.6144 11.6451 12.6828L12.3522 13.3899L13.0593 14.097C13.4844 13.6719 13.7526 13.0799 13.7526 12.4264H12.7526ZM12.3522 13.3899L11.6451 12.6828C11.5768 12.7511 11.4864 12.7903 11.3887 12.7903V13.7903V14.7903C12.0422 14.7903 12.6342 14.5221 13.0593 14.097L12.3522 13.3899ZM11.3887 13.7903V12.7903C11.2909 12.7903 11.2006 12.7511 11.1323 12.6828L10.4251 13.3899L9.71804 14.097C10.1432 14.5221 10.7352 14.7903 11.3887 14.7903V13.7903ZM10.4251 13.3899L11.1323 12.6828C11.0639 12.6144 11.0248 12.5241 11.0248 12.4264H10.0248H9.02477C9.02477 13.0799 9.29293 13.6719 9.71804 14.097L10.4251 13.3899ZM10.0248 12.4264H11.0248V11.1295H10.0248H9.02477V12.4264H10.0248ZM10.0248 11.1295L9.38117 10.3641C9.31328 10.4212 9.24151 10.4836 9.1588 10.5663L9.86591 11.2734L10.573 11.9805C10.5984 11.9551 10.6217 11.9341 10.6684 11.8949L10.0248 11.1295ZM9.86591 11.2734L9.1588 10.5663C8.56264 11.1624 8.23504 11.9628 8.23504 12.7962H9.23504H10.235C10.235 12.4902 10.3541 12.1994 10.573 11.9805L9.86591 11.2734ZM9.23504 12.7962H8.23504C8.23504 13.6659 8.5886 14.4568 9.15941 15.0267L9.86591 14.3189L10.5724 13.6112C10.3633 13.4024 10.235 13.1152 10.235 12.7962H9.23504ZM9.86591 14.3189L9.1588 15.0261C9.72785 15.5951 10.5182 15.9498 11.3887 15.9498V14.9498V13.9498C11.0704 13.9498 10.7826 13.8214 10.573 13.6118L9.86591 14.3189ZM11.3887 14.9498V15.9498C12.2585 15.9498 13.0494 15.5963 13.6192 15.0254L12.9115 14.3189L12.2038 13.6124C11.995 13.8216 11.7077 13.9498 11.3887 13.9498V14.9498ZM12.9115 14.3189L13.6186 15.0261C14.1876 14.457 14.5423 13.6666 14.5423 12.7962H13.5423H12.5423C12.5423 13.1145 12.414 13.4023 12.2044 13.6118L12.9115 14.3189ZM13.5423 12.7962H14.5423C14.5423 11.9264 14.1888 11.1355 13.618 10.5657L12.9115 11.2734L12.205 11.9811C12.4141 12.1899 12.5423 12.4771 12.5423 12.7962H13.5423ZM12.9115 11.2734L13.6186 10.5663C13.5433 10.491 13.4665 10.4219 13.3883 10.3576L12.7526 11.1295L12.1169 11.9014C12.1494 11.9282 12.1781 11.9542 12.2044 11.9805L12.9115 11.2734ZM10.6908 10.7584H9.69077V12.4271H10.6908H11.6908V10.7584H10.6908ZM10.6908 12.4271H9.69077C9.69077 12.8977 9.88506 13.3227 10.1888 13.6264L10.8958 12.9192L11.6029 12.2121C11.654 12.2632 11.6908 12.3392 11.6908 12.4271H10.6908ZM10.8958 12.9192L10.1887 13.6264C10.4931 13.9308 10.919 14.1243 11.3887 14.1243V13.1243V12.1243C11.4756 12.1243 11.5512 12.1603 11.603 12.2121L10.8958 12.9192ZM11.3887 13.1243V14.1243C11.8593 14.1243 12.2843 13.93 12.588 13.6263L11.8809 12.9192L11.1737 12.2122C11.2248 12.1611 11.3008 12.1243 11.3887 12.1243V13.1243ZM11.8809 12.9192L12.588 13.6264C12.8916 13.3227 13.0859 12.8977 13.0859 12.4271H12.0859H11.0859C11.0859 12.3392 11.1227 12.2632 11.1738 12.2121L11.8809 12.9192ZM12.0859 12.4271H13.0859V10.7584H12.0859H11.0859V12.4271H12.0859ZM12.0859 10.7584L12.4098 9.81228C12.0876 9.702 11.7438 9.64317 11.3887 9.64317V10.6432V11.6432C11.5218 11.6432 11.6468 11.6651 11.7621 11.7045L12.0859 10.7584ZM11.3887 10.6432V9.64317C11.0334 9.64317 10.69 9.70205 10.3678 9.81199L10.6908 10.7584L11.0137 11.7048C11.1304 11.665 11.2557 11.6432 11.3887 11.6432V10.6432ZM11.4818 9.9778H12.4818V8.1418H11.4818H10.4818V9.9778H11.4818ZM11.4818 8.1418V7.1418H10.0781V8.1418V9.1418H11.4818V8.1418ZM10.0781 8.1418H9.07813V10.2986H10.0781H11.0781V8.1418H10.0781ZM10.0781 10.2986L10.5435 11.1837C10.7948 11.0516 11.0814 10.9764 11.388 10.9764V9.97637V8.97637C10.7493 8.97637 10.1441 9.13417 9.61275 9.41352L10.0781 10.2986ZM11.388 9.97637L11.3727 10.9762L11.4665 10.9777L11.4818 9.9778L11.4971 8.97792L11.4033 8.97648L11.388 9.97637ZM9.41212 10.7844H10.4121V8.14127H9.41212H8.41212V10.7844H9.41212ZM9.41212 8.14127V7.14127H2.73628V8.14127V9.14127H9.41212V8.14127ZM2.73628 8.14127H1.73628V11.9849H2.73628H3.73628V8.14127H2.73628ZM2.73628 11.9849V12.9849H8.68678V11.9849V10.9849H2.73628V11.9849ZM8.68678 11.9849L9.6448 12.2717C9.73148 11.982 9.89019 11.7205 10.1016 11.5091L9.39447 10.802L8.68734 10.0949C8.24771 10.5346 7.91292 11.0829 7.72877 11.6982L8.68678 11.9849ZM9.39447 10.802L10.0996 11.5111L10.1172 11.4935L9.41212 10.7844L8.70702 10.0753L8.68937 10.0929L9.39447 10.802ZM8.57227 12.6516V11.6516H2.7441V12.6516V13.6516H8.57227V12.6516ZM2.7441 12.6516H1.7441V14.9498H2.7441H3.7441V12.6516H2.7441ZM2.7441 14.9498V15.9498H9.5676V14.9498V13.9498H2.7441V14.9498ZM9.5676 14.9498L10.2143 14.187C10.1753 14.154 10.1375 14.1192 10.1015 14.0831L9.39442 14.7903L8.68735 15.4974C8.76199 15.572 8.84007 15.644 8.92092 15.7125L9.5676 14.9498ZM9.39442 14.7903L10.1015 14.0832C9.7709 13.7525 9.56825 13.2988 9.56825 12.7961H8.56825H7.56825C7.56825 13.8507 7.9971 14.8072 8.68731 15.4974L9.39442 14.7903ZM8.56825 12.7961H9.56825C9.56825 12.7675 9.56909 12.7374 9.57081 12.7056L8.57227 12.6516L7.57372 12.5976C7.57023 12.6622 7.56825 12.7284 7.56825 12.7961H8.56825ZM9.41212 3.63143V2.63143H2.73628V3.63143V4.63143H9.41212V3.63143ZM2.73628 3.63143H1.73628V7.4751H2.73628H3.73628V3.63143H2.73628ZM2.73628 7.4751V8.4751H9.41212V7.4751V6.4751H2.73628V7.4751ZM9.41212 7.4751H10.4121V3.63143H9.41212H8.41212V7.4751H9.41212ZM2.73628 2.96477V3.96477H9.41212V2.96477V1.96477H2.73628V2.96477ZM9.41212 2.96477H10.4121V0.6666H9.41212H8.41212V2.96477H9.41212ZM9.41212 0.6666V-0.3334H2.73628V0.6666V1.6666H9.41212V0.6666ZM2.73628 0.6666H1.73628V2.96477H2.73628H3.73628V0.6666H2.73628ZM11.4824 7.4746H12.4824V0.665933H11.4824H10.4824V7.4746H11.4824ZM11.4824 0.665933V-0.334067H10.0788V0.665933V1.66593H11.4824V0.665933ZM10.0788 0.665933H9.0788V7.4746H10.0788H11.0788V0.665933H10.0788ZM10.0788 7.4746V8.4746H11.4824V7.4746V6.4746H10.0788V7.4746ZM0.666617 7.4746V8.4746H2.07027V7.4746V6.4746H0.666617V7.4746ZM2.07027 7.4746H3.07027V0.665933H2.07027H1.07027V7.4746H2.07027ZM2.07027 0.665933V-0.334067H0.666617V0.665933V1.66593H2.07027V0.665933ZM0.666617 0.665933H-0.333383V7.4746H0.666617H1.66662V0.665933H0.666617ZM2.07027 8.14127V7.14127H0.666617V8.14127V9.14127H2.07027V8.14127ZM0.666617 8.14127H-0.333383V14.9499H0.666617H1.66662V8.14127H0.666617ZM0.666617 14.9499V15.9499H2.07027V14.9499V13.9499H0.666617V14.9499ZM2.07027 14.9499H3.07027V8.14127H2.07027H1.07027V14.9499H2.07027Z" fill="var(--stroke-0, #6783A0)" mask="url(#path-1-inside-1_0_317)"/>
</g>
</svg>
