<svg preserveAspectRatio="none" width="100%" height="100%" overflow="visible" style="display: block;" viewBox="0 0 15.8333 15.8333" fill="none" xmlns="http://www.w3.org/2000/svg">
<path id="Vector" d="M12.5306 1.492C12.5306 1.492 12.5299 1.49052 12.5291 1.49052C12.5269 1.4883 12.5232 1.48756 12.521 1.48533C11.1861 0.525495 9.59322 0 7.91589 0C5.8012 0 3.81345 0.823449 2.31846 2.31924C2.22877 2.40892 2.15021 2.50453 2.06646 2.59717C2.04793 2.61348 2.03311 2.63201 2.01754 2.65128C0.718236 4.10325 0 5.95244 0 7.91666C0 10.0314 0.823449 12.0191 2.31923 13.5141C3.8142 15.0098 5.80198 15.8333 7.91667 15.8333C10.0314 15.8333 12.0191 15.0099 13.5141 13.5141C15.0091 12.0191 15.8333 10.0306 15.8333 7.91666C15.8333 5.80273 15.0099 3.81422 13.5141 2.31923C13.2072 2.01237 12.8759 1.74184 12.5313 1.4928L12.5306 1.492ZM7.91604 0.790103C9.25758 0.790103 10.5391 1.16589 11.6523 1.85445C10.9659 2.70756 10.5924 3.76232 10.5924 4.87175V7.91581C10.5924 7.91581 10.5931 7.91877 10.5931 7.92026C10.5909 10.089 8.8254 11.8536 6.65595 11.8536C5.60569 11.8536 4.61773 11.443 3.8728 10.6989C3.12864 9.95472 2.71878 8.96599 2.71804 7.91648V7.91574V3.0528C2.77214 2.99499 2.82106 2.93347 2.87739 2.87714C4.22339 1.53114 6.01253 0.790103 7.91604 0.790103ZM12.9547 12.9544C11.6094 14.3004 9.81955 15.0416 7.91604 15.0416C6.01348 15.0416 4.22344 14.3004 2.8774 12.9544C1.53136 11.6084 0.790223 9.81924 0.790223 7.91573C0.790223 6.52527 1.18973 5.1986 1.9272 4.05863V7.91497V7.91571C1.9272 9.17647 2.4201 10.363 3.31322 11.2577C4.20708 12.1515 5.39452 12.6444 6.65517 12.6444C9.26263 12.6444 11.3832 10.5231 11.3832 7.9164C11.3832 7.91417 11.3817 7.91269 11.3817 7.91047V4.87229C11.3817 3.92654 11.7079 3.02971 12.3038 2.30848C12.5291 2.48562 12.7477 2.67167 12.9538 2.87771C14.2998 4.22371 15.041 6.01284 15.041 7.91635C15.041 9.81986 14.2998 11.6089 12.9538 12.955L12.9547 12.9544Z" fill="var(--fill-0, #6783A0)"/>
</svg>
