<svg preserveAspectRatio="none" width="100%" height="100%" overflow="visible" style="display: block;" viewBox="0 0 16.6667 16.6667" fill="none" xmlns="http://www.w3.org/2000/svg">
<path id="Vector" d="M8.33301 0.599609C9.34856 0.599609 10.3547 0.79984 11.293 1.18848C12.2312 1.57711 13.0837 2.14716 13.8018 2.86523C14.5198 3.58329 15.0889 4.43587 15.4775 5.37402C15.8661 6.31217 16.0664 7.31756 16.0664 8.33301C16.0664 9.8625 15.6134 11.3582 14.7637 12.6299C13.914 13.9015 12.7059 14.8922 11.293 15.4775C9.87989 16.0629 8.32434 16.2164 6.82422 15.918C5.32434 15.6195 3.94663 14.8831 2.86523 13.8018C1.78371 12.7202 1.04742 11.3419 0.749023 9.8418C0.450681 8.34178 0.603233 6.78702 1.18848 5.37402C1.77379 3.96094 2.76537 2.75307 4.03711 1.90332C5.30873 1.05368 6.80366 0.599674 8.33301 0.599609ZM11.1143 1.62012C9.78656 1.07017 8.3255 0.925767 6.91602 1.20605C5.50642 1.48644 4.21157 2.17905 3.19531 3.19531C2.17905 4.21157 1.48644 5.50642 1.20605 6.91602C0.925768 8.3255 1.07017 9.78656 1.62012 11.1143C2.17007 12.4419 3.10113 13.5766 4.2959 14.375C5.4908 15.1734 6.89591 15.5995 8.33301 15.5996C10.2602 15.5996 12.1089 14.8344 13.4717 13.4717C14.8344 12.1089 15.5996 10.2602 15.5996 8.33301C15.5995 6.89591 15.1734 5.49081 14.375 4.2959C13.5766 3.10113 12.4419 2.17007 11.1143 1.62012ZM10.2998 10.1914L10.6836 10.6533C10.7313 10.6137 10.7927 10.594 10.8545 10.5996C10.8851 10.6024 10.9152 10.6117 10.9424 10.626C10.9696 10.6403 10.994 10.6599 11.0137 10.6836C11.0533 10.7313 11.072 10.7927 11.0664 10.8545C11.0607 10.9163 11.0311 10.9739 10.9834 11.0137L10.9824 11.0146C10.2392 11.6351 9.30117 11.9746 8.33301 11.9746C7.36503 11.9745 6.42769 11.6349 5.68457 11.0146L5.68359 11.0137L5.65137 10.9805C5.62249 10.9448 5.60389 10.9009 5.59961 10.8545C5.59402 10.7927 5.61367 10.7313 5.65332 10.6836C5.69299 10.6359 5.74976 10.6054 5.81152 10.5996C5.87342 10.5939 5.9356 10.6136 5.9834 10.6533L5.99023 10.6592C6.65384 11.1941 7.48065 11.4853 8.33301 11.4854C9.18556 11.4854 10.013 11.1943 10.6768 10.6592L10.2998 10.1914ZM5.70605 6.0293C5.83214 6.00422 5.96326 6.01721 6.08203 6.06641C6.20078 6.11561 6.30261 6.19879 6.37402 6.30566C6.44537 6.41252 6.4834 6.53851 6.4834 6.66699C6.48331 6.83919 6.41469 7.00417 6.29297 7.12598C6.17107 7.24787 6.0054 7.31641 5.83301 7.31641C5.70467 7.31634 5.5794 7.27828 5.47266 7.20703C5.36576 7.13561 5.28162 7.03381 5.23242 6.91504C5.18339 6.79642 5.17126 6.66594 5.19629 6.54004C5.22137 6.41395 5.28312 6.29794 5.37402 6.20703C5.46479 6.11633 5.58023 6.05442 5.70605 6.0293ZM10 6.43359H10.833C10.8949 6.43359 10.9543 6.4582 10.998 6.50195C11.0418 6.54571 11.0664 6.60511 11.0664 6.66699C11.0663 6.72876 11.0417 6.78835 10.998 6.83203C10.9543 6.87559 10.8947 6.90039 10.833 6.90039H10C9.93819 6.90039 9.8787 6.87569 9.83496 6.83203C9.79128 6.78835 9.76669 6.72876 9.7666 6.66699C9.7666 6.60519 9.79131 6.5457 9.83496 6.50195C9.87872 6.4582 9.93812 6.43359 10 6.43359Z" fill="var(--fill-0, black)" stroke="var(--stroke-0, #6783A0)" stroke-width="1.2"/>
</svg>
