<svg preserveAspectRatio="none" width="100%" height="100%" overflow="visible" style="display: block;" viewBox="0 0 14.2097 15.6165" fill="none" xmlns="http://www.w3.org/2000/svg">
<g id="Vector">
<mask id="path-1-inside-1_0_405" fill="white">
<path d="M11.3887 15.6165H0.333333C0.149083 15.6165 0 15.4674 0 15.2832V0.333333C0 0.149083 0.149088 0 0.333333 0H11.8158C12.0001 0 12.1492 0.149088 12.1492 0.333333V10.08C12.6225 10.2122 13.0456 10.4648 13.3835 10.802C13.8939 11.3124 14.2097 12.0175 14.2097 12.7962C14.2097 13.5748 13.8939 14.2799 13.3835 14.7903C12.8731 15.3008 12.168 15.6165 11.3894 15.6165H11.3887ZM12.7526 11.1295V12.4264C12.7526 12.802 12.599 13.1432 12.3522 13.3899C12.1055 13.6366 11.7643 13.7903 11.3887 13.7903C11.013 13.7903 10.6719 13.6366 10.4251 13.3899C10.1784 13.1432 10.0248 12.802 10.0248 12.4264V11.1295C9.96747 11.1777 9.91995 11.2193 9.86591 11.2734C9.45836 11.6809 9.23504 12.2265 9.23504 12.7962C9.23504 13.3906 9.47593 13.9296 9.86591 14.3189C10.2552 14.7083 10.7943 14.9498 11.3887 14.9498C11.9831 14.9498 12.5222 14.7089 12.9115 14.3189C13.3008 13.9296 13.5423 13.3906 13.5423 12.7962C13.5423 12.2018 13.3015 11.6627 12.9115 11.2734C12.8607 11.2226 12.8079 11.1751 12.7526 11.1295ZM10.6908 10.7584V12.4271C10.6908 12.6185 10.7695 12.7929 10.8958 12.9192C11.0222 13.0456 11.1973 13.1243 11.3887 13.1243C11.5801 13.1243 11.7546 13.0456 11.8809 12.9192C12.0072 12.7929 12.0859 12.6185 12.0859 12.4271V10.7584C11.8672 10.6835 11.6328 10.6432 11.3887 10.6432C11.1445 10.6432 10.9102 10.6835 10.6908 10.7584ZM11.4818 9.9778V8.1418H10.0781V10.2986C10.4694 10.0929 10.9154 9.97637 11.388 9.97637L11.4818 9.9778ZM9.41212 10.7844V8.14127H2.73628V11.9849H8.68678C8.8222 11.5325 9.06895 11.1275 9.39447 10.802L9.41212 10.7844ZM8.57227 12.6516H2.7441V14.9498H9.5676C9.5077 14.899 9.44976 14.8456 9.39442 14.7903C8.884 14.2798 8.56825 13.5748 8.56825 12.7961C8.56825 12.7479 8.56966 12.6998 8.57227 12.6516ZM9.41212 3.63143H2.73628V7.4751H9.41212V3.63143ZM2.73628 2.96477H9.41212V0.6666H2.73628V2.96477ZM11.4824 7.4746V0.665933H10.0788V7.4746H11.4824ZM0.666617 7.4746H2.07027V0.665933H0.666617V7.4746ZM2.07027 8.14127H0.666617V14.9499H2.07027V8.14127Z"/>
</mask>
<path d="M11.3887 15.6165H0.333333C0.149083 15.6165 0 15.4674 0 15.2832V0.333333C0 0.149083 0.149088 0 0.333333 0H11.8158C12.0001 0 12.1492 0.149088 12.1492 0.333333V10.08C12.6225 10.2122 13.0456 10.4648 13.3835 10.802C13.8939 11.3124 14.2097 12.0175 14.2097 12.7962C14.2097 13.5748 13.8939 14.2799 13.3835 14.7903C12.8731 15.3008 12.168 15.6165 11.3894 15.6165H11.3887ZM12.7526 11.1295V12.4264C12.7526 12.802 12.599 13.1432 12.3522 13.3899C12.1055 13.6366 11.7643 13.7903 11.3887 13.7903C11.013 13.7903 10.6719 13.6366 10.4251 13.3899C10.1784 13.1432 10.0248 12.802 10.0248 12.4264V11.1295C9.96747 11.1777 9.91995 11.2193 9.86591 11.2734C9.45836 11.6809 9.23504 12.2265 9.23504 12.7962C9.23504 13.3906 9.47593 13.9296 9.86591 14.3189C10.2552 14.7083 10.7943 14.9498 11.3887 14.9498C11.9831 14.9498 12.5222 14.7089 12.9115 14.3189C13.3008 13.9296 13.5423 13.3906 13.5423 12.7962C13.5423 12.2018 13.3015 11.6627 12.9115 11.2734C12.8607 11.2226 12.8079 11.1751 12.7526 11.1295ZM10.6908 10.7584V12.4271C10.6908 12.6185 10.7695 12.7929 10.8958 12.9192C11.0222 13.0456 11.1973 13.1243 11.3887 13.1243C11.5801 13.1243 11.7546 13.0456 11.8809 12.9192C12.0072 12.7929 12.0859 12.6185 12.0859 12.4271V10.7584C11.8672 10.6835 11.6328 10.6432 11.3887 10.6432C11.1445 10.6432 10.9102 10.6835 10.6908 10.7584ZM11.4818 9.9778V8.1418H10.0781V10.2986C10.4694 10.0929 10.9154 9.97637 11.388 9.97637L11.4818 9.9778ZM9.41212 10.7844V8.14127H2.73628V11.9849H8.68678C8.8222 11.5325 9.06895 11.1275 9.39447 10.802L9.41212 10.7844ZM8.57227 12.6516H2.7441V14.9498H9.5676C9.5077 14.899 9.44976 14.8456 9.39442 14.7903C8.884 14.2798 8.56825 13.5748 8.56825 12.7961C8.56825 12.7479 8.56966 12.6998 8.57227 12.6516ZM9.41212 3.63143H2.73628V7.4751H9.41212V3.63143ZM2.73628 2.96477H9.41212V0.6666H2.73628V2.96477ZM11.4824 7.4746V0.665933H10.0788V7.4746H11.4824ZM0.666617 7.4746H2.07027V0.665933H0.666617V7.4746ZM2.07027 8.14127H0.666617V14.9499H2.07027V8.14127Z" fill="var(--fill-0, black)"/>
<path d="M12.1492 10.08H10.9492V10.9908L11.8264 11.2358L12.1492 10.08ZM13.3835 10.802L14.2321 9.95347L14.2312 9.95265L13.3835 10.802ZM12.7526 11.1295L13.5155 10.2032L11.5526 8.5867V11.1295H12.7526ZM10.0248 11.1295H11.2248V8.55254L9.25245 10.2111L10.0248 11.1295ZM9.86591 11.2734L10.7144 12.1219L9.86591 11.2734ZM9.86591 14.3189L10.7144 13.4704L10.7137 13.4697L9.86591 14.3189ZM12.9115 14.3189L12.0629 13.4704L12.0622 13.4711L12.9115 14.3189ZM12.9115 11.2734L12.0629 12.1219L12.0637 12.1226L12.9115 11.2734ZM10.6908 10.7584L10.3032 9.62271L9.49077 9.89995V10.7584H10.6908ZM10.8958 12.9192L11.7444 12.0707L11.7444 12.0707L10.8958 12.9192ZM11.8809 12.9192L11.0323 12.0707L11.0323 12.0707L11.8809 12.9192ZM12.0859 10.7584H13.2859V9.90077L12.4745 9.62306L12.0859 10.7584ZM11.4818 9.9778L11.4634 11.1777L12.6818 11.1963V9.9778H11.4818ZM11.4818 8.1418H12.6818V6.9418H11.4818V8.1418ZM10.0781 8.1418V6.9418H8.87813V8.1418H10.0781ZM10.0781 10.2986H8.87813V12.2853L10.6366 11.3608L10.0781 10.2986ZM11.388 9.97637L11.4064 8.77651L11.3972 8.77637H11.388V9.97637ZM9.41212 10.7844L10.2582 11.6354L10.6121 11.2835V10.7844H9.41212ZM9.41212 8.14127H10.6121V6.94127H9.41212V8.14127ZM2.73628 8.14127V6.94127H1.53628V8.14127H2.73628ZM2.73628 11.9849H1.53628V13.1849H2.73628V11.9849ZM8.68678 11.9849V13.1849H9.58023L9.8364 12.329L8.68678 11.9849ZM9.39447 10.802L8.54834 9.95105L8.54592 9.95348L9.39447 10.802ZM8.57227 12.6516L9.77052 12.7164L9.83888 11.4516H8.57227V12.6516ZM2.7441 12.6516V11.4516H1.5441V12.6516H2.7441ZM2.7441 14.9498H1.5441V16.1498H2.7441V14.9498ZM9.5676 14.9498V16.1498H12.8386L10.3436 14.0345L9.5676 14.9498ZM9.39442 14.7903L8.54589 15.6388L8.54594 15.6388L9.39442 14.7903ZM9.41212 3.63143H10.6121V2.43143H9.41212V3.63143ZM2.73628 3.63143V2.43143H1.53628V3.63143H2.73628ZM2.73628 7.4751H1.53628V8.6751H2.73628V7.4751ZM9.41212 7.4751V8.6751H10.6121V7.4751H9.41212ZM2.73628 2.96477H1.53628V4.16477H2.73628V2.96477ZM9.41212 2.96477V4.16477H10.6121V2.96477H9.41212ZM9.41212 0.6666H10.6121V-0.5334H9.41212V0.6666ZM2.73628 0.6666V-0.5334H1.53628V0.6666H2.73628ZM11.4824 7.4746V8.6746H12.6824V7.4746H11.4824ZM11.4824 0.665933H12.6824V-0.534067H11.4824V0.665933ZM10.0788 0.665933V-0.534067H8.8788V0.665933H10.0788ZM10.0788 7.4746H8.8788V8.6746H10.0788V7.4746ZM0.666617 7.4746H-0.533383V8.6746H0.666617V7.4746ZM2.07027 7.4746V8.6746H3.27027V7.4746H2.07027ZM2.07027 0.665933H3.27027V-0.534067H2.07027V0.665933ZM0.666617 0.665933V-0.534067H-0.533383V0.665933H0.666617ZM2.07027 8.14127H3.27027V6.94127H2.07027V8.14127ZM0.666617 8.14127V6.94127H-0.533383V8.14127H0.666617ZM0.666617 14.9499H-0.533383V16.1499H0.666617V14.9499ZM2.07027 14.9499V16.1499H3.27027V14.9499H2.07027ZM11.3887 15.6165V14.4165H0.333333V15.6165V16.8165H11.3887V15.6165ZM0.333333 15.6165V14.4165C0.811837 14.4165 1.2 14.8047 1.2 15.2832H0H-1.2C-1.2 16.1301 -0.51367 16.8165 0.333333 16.8165V15.6165ZM0 15.2832H1.2V0.333333H0H-1.2V15.2832H0ZM0 0.333333H1.2C1.2 0.811837 0.811819 1.2 0.333333 1.2V0V-1.2C-0.513642 -1.2 -1.2 -0.51367 -1.2 0.333333H0ZM0.333333 0V1.2H11.8158V0V-1.2H0.333333V0ZM11.8158 0V1.2C11.3373 1.2 10.9492 0.811818 10.9492 0.333333H12.1492H13.3492C13.3492 -0.513641 12.6628 -1.2 11.8158 -1.2V0ZM12.1492 0.333333H10.9492V10.08H12.1492H13.3492V0.333333H12.1492ZM12.1492 10.08L11.8264 11.2358C12.0963 11.3112 12.34 11.4559 12.5358 11.6513L13.3835 10.802L14.2312 9.95265C13.7513 9.47363 13.1486 9.11317 12.4719 8.92421L12.1492 10.08ZM13.3835 10.802L12.535 11.6505C12.8297 11.9452 13.0097 12.3487 13.0097 12.7962H14.2097H15.4097C15.4097 11.6863 14.9582 10.6796 14.2321 9.95347L13.3835 10.802ZM14.2097 12.7962H13.0097C13.0097 13.2436 12.8297 13.6471 12.535 13.9418L13.3835 14.7903L14.2321 15.6388C14.9582 14.9127 15.4097 13.906 15.4097 12.7962H14.2097ZM13.3835 14.7903L12.535 13.9418C12.2403 14.2365 11.8369 14.4165 11.3894 14.4165V15.6165V16.8165C12.4992 16.8165 13.5059 16.3651 14.2321 15.6388L13.3835 14.7903ZM11.3894 15.6165V14.4165H11.3887V15.6165V16.8165H11.3894V15.6165ZM12.7526 11.1295H11.5526V12.4264H12.7526H13.9526V11.1295H12.7526ZM12.7526 12.4264H11.5526C11.5526 12.4686 11.5364 12.5087 11.5037 12.5414L12.3522 13.3899L13.2007 14.2384C13.6615 13.7776 13.9526 13.1355 13.9526 12.4264H12.7526ZM12.3522 13.3899L11.5037 12.5414C11.471 12.574 11.4309 12.5903 11.3887 12.5903V13.7903V14.9903C12.0978 14.9903 12.7399 14.6992 13.2007 14.2384L12.3522 13.3899ZM11.3887 13.7903V12.5903C11.3465 12.5903 11.3063 12.574 11.2737 12.5414L10.4251 13.3899L9.57662 14.2384C10.0374 14.6992 10.6796 14.9903 11.3887 14.9903V13.7903ZM10.4251 13.3899L11.2737 12.5414C11.241 12.5087 11.2248 12.4685 11.2248 12.4264H10.0248H8.82477C8.82477 13.1355 9.11583 13.7776 9.57662 14.2384L10.4251 13.3899ZM10.0248 12.4264H11.2248V11.1295H10.0248H8.82477V12.4264H10.0248ZM10.0248 11.1295L9.25245 10.2111C9.18244 10.2699 9.10582 10.3364 9.01738 10.4249L9.86591 11.2734L10.7144 12.1219C10.7341 12.1023 10.7525 12.0854 10.7971 12.0479L10.0248 11.1295ZM9.86591 11.2734L9.01738 10.4249C8.3835 11.0587 8.03504 11.9101 8.03504 12.7962H9.23504H10.435C10.435 12.5429 10.5332 12.3031 10.7144 12.1219L9.86591 11.2734ZM9.23504 12.7962H8.03504C8.03504 13.721 8.41114 14.5623 9.01811 15.1682L9.86591 14.3189L10.7137 13.4697C10.5407 13.297 10.435 13.0601 10.435 12.7962H9.23504ZM9.86591 14.3189L9.01738 15.1675C9.62238 15.7725 10.463 16.1498 11.3887 16.1498V14.9498V13.7498C11.1256 13.7498 10.8881 13.6441 10.7144 13.4704L9.86591 14.3189ZM11.3887 14.9498V16.1498C12.3135 16.1498 13.1548 15.7737 13.7607 15.1667L12.9115 14.3189L12.0622 13.4711C11.8895 13.6441 11.6527 13.7498 11.3887 13.7498V14.9498ZM12.9115 14.3189L13.76 15.1675C14.365 14.5625 14.7423 13.7218 14.7423 12.7962H13.5423H12.3423C12.3423 13.0593 12.2366 13.2968 12.063 13.4704L12.9115 14.3189ZM13.5423 12.7962H14.7423C14.7423 11.8713 14.3662 11.0301 13.7593 10.4241L12.9115 11.2734L12.0637 12.1226C12.2367 12.2953 12.3423 12.5322 12.3423 12.7962H13.5423ZM12.9115 11.2734L13.76 10.4249C13.6798 10.3446 13.5982 10.2713 13.5155 10.2032L12.7526 11.1295L11.9897 12.0558C12.0177 12.0788 12.0416 12.1005 12.063 12.1219L12.9115 11.2734ZM10.6908 10.7584H9.49077V12.4271H10.6908H11.8908V10.7584H10.6908ZM10.6908 12.4271H9.49077C9.49077 12.9536 9.70816 13.4286 10.0473 13.7678L10.8958 12.9192L11.7444 12.0707C11.8309 12.1573 11.8908 12.2834 11.8908 12.4271H10.6908ZM10.8958 12.9192L10.0473 13.7678C10.3873 14.1078 10.8634 14.3243 11.3887 14.3243V13.1243V11.9243C11.5312 11.9243 11.657 11.9833 11.7444 12.0707L10.8958 12.9192ZM11.3887 13.1243V14.3243C11.9152 14.3243 12.3902 14.1069 12.7294 13.7678L11.8809 12.9192L11.0323 12.0707C11.1189 11.9842 11.245 11.9243 11.3887 11.9243V13.1243ZM11.8809 12.9192L12.7294 13.7678C13.0685 13.4286 13.2859 12.9536 13.2859 12.4271H12.0859H10.8859C10.8859 12.2834 10.9458 12.1573 11.0323 12.0707L11.8809 12.9192ZM12.0859 12.4271H13.2859V10.7584H12.0859H10.8859V12.4271H12.0859ZM12.0859 10.7584L12.4745 9.62306C12.1316 9.5057 11.766 9.44316 11.3887 9.44316V10.6432V11.8432C11.4996 11.8432 11.6028 11.8614 11.6974 11.8937L12.0859 10.7584ZM11.3887 10.6432V9.44316C11.0112 9.44316 10.6459 9.50575 10.3032 9.62271L10.6908 10.7584L11.0783 11.8941C11.1744 11.8613 11.2779 11.8432 11.3887 11.8432V10.6432ZM11.4818 9.9778H12.6818V8.1418H11.4818H10.2818V9.9778H11.4818ZM11.4818 8.1418V6.9418H10.0781V8.1418V9.3418H11.4818V8.1418ZM10.0781 8.1418H8.87813V10.2986H10.0781H11.2781V8.1418H10.0781ZM10.0781 10.2986L10.6366 11.3608C10.8598 11.2434 11.1146 11.1764 11.388 11.1764V9.97637V8.77637C10.7161 8.77637 10.079 8.94242 9.51967 9.2365L10.0781 10.2986ZM11.388 9.97637L11.3697 11.1762L11.4634 11.1777L11.4818 9.9778L11.5001 8.77794L11.4064 8.77651L11.388 9.97637ZM9.41212 10.7844H10.6121V8.14127H9.41212H8.21212V10.7844H9.41212ZM9.41212 8.14127V6.94127H2.73628V8.14127V9.34127H9.41212V8.14127ZM2.73628 8.14127H1.53628V11.9849H2.73628H3.93628V8.14127H2.73628ZM2.73628 11.9849V13.1849H8.68678V11.9849V10.7849H2.73628V11.9849ZM8.68678 11.9849L9.8364 12.329C9.91334 12.0719 10.0544 11.8391 10.243 11.6505L9.39447 10.802L8.54592 9.95348C8.08346 10.416 7.73106 10.993 7.53717 11.6409L8.68678 11.9849ZM9.39447 10.802L10.2406 11.6529L10.2582 11.6354L9.41212 10.7844L8.566 9.9335L8.54835 9.95105L9.39447 10.802ZM8.57227 12.6516V11.4516H2.7441V12.6516V13.8516H8.57227V12.6516ZM2.7441 12.6516H1.5441V14.9498H2.7441H3.9441V12.6516H2.7441ZM2.7441 14.9498V16.1498H9.5676V14.9498V13.7498H2.7441V14.9498ZM9.5676 14.9498L10.3436 14.0345C10.3089 14.005 10.2751 13.9739 10.2429 13.9417L9.39442 14.7903L8.54594 15.6388C8.62443 15.7173 8.70654 15.793 8.79158 15.8651L9.5676 14.9498ZM9.39442 14.7903L10.2429 13.9417C9.94828 13.6471 9.76825 13.2436 9.76825 12.7961H8.56825H7.36825C7.36825 13.9059 7.81972 14.9126 8.54589 15.6388L9.39442 14.7903ZM8.56825 12.7961H9.76825C9.76825 12.7714 9.76898 12.7449 9.77052 12.7164L8.57227 12.6516L7.37402 12.5868C7.37035 12.6547 7.36825 12.7245 7.36825 12.7961H8.56825ZM9.41212 3.63143V2.43143H2.73628V3.63143V4.83143H9.41212V3.63143ZM2.73628 3.63143H1.53628V7.4751H2.73628H3.93628V3.63143H2.73628ZM2.73628 7.4751V8.6751H9.41212V7.4751V6.2751H2.73628V7.4751ZM9.41212 7.4751H10.6121V3.63143H9.41212H8.21212V7.4751H9.41212ZM2.73628 2.96477V4.16477H9.41212V2.96477V1.76477H2.73628V2.96477ZM9.41212 2.96477H10.6121V0.6666H9.41212H8.21212V2.96477H9.41212ZM9.41212 0.6666V-0.5334H2.73628V0.6666V1.8666H9.41212V0.6666ZM2.73628 0.6666H1.53628V2.96477H2.73628H3.93628V0.6666H2.73628ZM11.4824 7.4746H12.6824V0.665933H11.4824H10.2824V7.4746H11.4824ZM11.4824 0.665933V-0.534067H10.0788V0.665933V1.86593H11.4824V0.665933ZM10.0788 0.665933H8.8788V7.4746H10.0788H11.2788V0.665933H10.0788ZM10.0788 7.4746V8.6746H11.4824V7.4746V6.2746H10.0788V7.4746ZM0.666617 7.4746V8.6746H2.07027V7.4746V6.2746H0.666617V7.4746ZM2.07027 7.4746H3.27027V0.665933H2.07027H0.870267V7.4746H2.07027ZM2.07027 0.665933V-0.534067H0.666617V0.665933V1.86593H2.07027V0.665933ZM0.666617 0.665933H-0.533383V7.4746H0.666617H1.86662V0.665933H0.666617ZM2.07027 8.14127V6.94127H0.666617V8.14127V9.34127H2.07027V8.14127ZM0.666617 8.14127H-0.533383V14.9499H0.666617H1.86662V8.14127H0.666617ZM0.666617 14.9499V16.1499H2.07027V14.9499V13.7499H0.666617V14.9499ZM2.07027 14.9499H3.27027V8.14127H2.07027H0.870267V14.9499H2.07027Z" fill="var(--stroke-0, #6783A0)" mask="url(#path-1-inside-1_0_405)"/>
</g>
</svg>
